            <svg
              width="42"
              height="42"
              viewBox="0 0 42 42"
              fill="none"
              xmlns="http://www.w3.org/2000/svg">
              <path
                d="M8.176 9.1L7.5929 5.6H5.4999C5.1877 4.396 4.1013 3.5 2.8 3.5C1.2558 3.5 0 4.7558 0 6.3C0 7.8442 1.2558 9.1 2.8 9.1C4.1013 9.1 5.1877 8.204 5.5006 7H6.4064L6.7564 9.1H6.7298L10.3495 27.3112C8.624 27.4428 7.1869 28.7714 7.0175 30.443C6.9181 31.4265 7.2415 32.4114 7.9051 33.1436C8.5694 33.8779 9.5158 34.3 10.5 34.3H11.9C11.9 36.6163 13.7837 38.5 16.1 38.5C18.4163 38.5 20.3 36.6163 20.3 34.3H28C28 36.6163 29.8837 38.5 32.2 38.5C34.5163 38.5 36.4 36.6163 36.4 34.3H39.2C39.5871 34.3 39.9 33.9871 39.9 33.6C39.9 33.2129 39.5871 32.9 39.2 32.9H36.155C35.5768 31.2711 34.0249 30.1 32.2 30.1C30.3751 30.1 28.8232 31.2711 28.245 32.9H20.055C19.4768 31.2711 17.9249 30.1 16.1 30.1C14.2751 30.1 12.7232 31.2711 12.145 32.9H10.5C9.9106 32.9 9.3436 32.6466 8.9432 32.2049C8.5393 31.7576 8.3496 31.1822 8.4105 30.5837C8.5169 29.5274 9.4927 28.7007 10.6316 28.7007H11.1853C11.1951 28.7007 11.2028 28.7007 11.2126 28.7007H38.5084C40.4341 28.7 42 27.1341 42 25.2091V9.1H8.176ZM2.8 7.7C2.0279 7.7 1.4 7.0721 1.4 6.3C1.4 5.5279 2.0279 4.9 2.8 4.9C3.5721 4.9 4.2 5.5279 4.2 6.3C4.2 7.0721 3.5721 7.7 2.8 7.7ZM32.2 31.5C33.7442 31.5 35 32.7558 35 34.3C35 35.8442 33.7442 37.1 32.2 37.1C30.6558 37.1 29.4 35.8442 29.4 34.3C29.4 32.7558 30.6558 31.5 32.2 31.5ZM16.1 31.5C17.6442 31.5 18.9 32.7558 18.9 34.3C18.9 35.8442 17.6442 37.1 16.1 37.1C14.5558 37.1 13.3 35.8442 13.3 34.3C13.3 32.7558 14.5558 31.5 16.1 31.5ZM40.6 25.2091C40.6 26.362 39.662 27.3 38.5091 27.3H11.7747L8.4357 10.5H40.6V25.2091Z"
                fill="white"
              />
            </svg>